<?xml version="1.0" encoding="UTF-8" standalone="no"?>
<svg
   height="24px"
   viewBox="0 0 24 24"
   width="24px"
   fill="#000000"
   version="1.1"
   id="svg1109"
   sodipodi:docname="format_shapes_black_24dp.svg"
   inkscape:version="1.1.1 (3bf5ae0d25, 2021-09-20, custom)"
   xmlns:inkscape="http://www.inkscape.org/namespaces/inkscape"
   xmlns:sodipodi="http://sodipodi.sourceforge.net/DTD/sodipodi-0.dtd"
   xmlns="http://www.w3.org/2000/svg"
   xmlns:svg="http://www.w3.org/2000/svg">
  <defs
     id="defs1113" />
  <sodipodi:namedview
     id="namedview1111"
     pagecolor="#ffffff"
     bordercolor="#cccccc"
     borderopacity="1"
     inkscape:pageshadow="0"
     inkscape:pageopacity="1"
     inkscape:pagecheckerboard="0"
     showgrid="false"
     inkscape:zoom="30.916667"
     inkscape:cx="14.215633"
     inkscape:cy="12.016173"
     inkscape:window-width="1661"
     inkscape:window-height="931"
     inkscape:window-x="0"
     inkscape:window-y="0"
     inkscape:window-maximized="1"
     inkscape:current-layer="svg1109" />
  <path
     d="M0 0h24v24H0z"
     fill="none"
     id="path1105" />
  <path
     d="M 23,7 V 1 H 17 V 3 H 7 V 1 H 1 V 7 H 3 V 17 H 1 v 6 h 6 v -2 h 10 v 2 h 6 V 17 H 21 V 7 Z M 3,3 H 5 V 5 H 3 Z M 5,21 H 3 V 19 H 5 Z M 17,19 H 7 V 17 H 5 V 7 H 7 V 5 h 10 v 2 h 2 v 10 h -2 z m 4,2 h -2 v -2 h 2 z M 19,5 V 3 h 2 v 2 z"
     id="path1107"
     sodipodi:nodetypes="cccccccccccccccccccccccccccccccccccccccccccccccccccccc" />
  <path
     d="M 23,7 V 1 H 17 V 3 H 7 V 1 H 1 V 7 H 3 V 17 H 1 v 6 h 6 v -2 h 10 v 2 h 6 V 17 H 21 V 7 Z M 3,3 H 5 V 5 H 3 Z M 5,21 H 3 V 19 H 5 Z M 17,19 H 7 V 17 H 5 V 7 H 7 V 5 h 10 v 2 h 2 v 10 h -2 z m 4,2 h -2 v -2 h 2 z M 19,5 V 3 h 2 v 2 z"
     id="path2475"
     sodipodi:nodetypes="cccccccccccccccccccccccccccccccccccccccccccccccccccccc"
     style="fill:#808080;fill-opacity:1" />
</svg>
