<?xml version="1.0" encoding="UTF-8" standalone="no"?>
<svg
   height="24px"
   viewBox="0 0 24 24"
   width="24px"
   fill="#000000"
   version="1.1"
   id="svg6"
   sodipodi:docname="ios_share_black_24dp.svg"
   inkscape:version="1.1.1 (3bf5ae0d25, 2021-09-20, custom)"
   xmlns:inkscape="http://www.inkscape.org/namespaces/inkscape"
   xmlns:sodipodi="http://sodipodi.sourceforge.net/DTD/sodipodi-0.dtd"
   xmlns="http://www.w3.org/2000/svg"
   xmlns:svg="http://www.w3.org/2000/svg">
  <defs
     id="defs10" />
  <sodipodi:namedview
     id="namedview8"
     pagecolor="#ffffff"
     bordercolor="#cccccc"
     borderopacity="1"
     inkscape:pageshadow="0"
     inkscape:pageopacity="1"
     inkscape:pagecheckerboard="0"
     showgrid="false"
     inkscape:zoom="30.916667"
     inkscape:cx="12.016173"
     inkscape:cy="13.309973"
     inkscape:window-width="1661"
     inkscape:window-height="931"
     inkscape:window-x="0"
     inkscape:window-y="0"
     inkscape:window-maximized="1"
     inkscape:current-layer="svg6" />
  <path
     d="M0 0h24v24H0V0z"
     fill="none"
     id="path2" />
  <path
     d="M16 5l-1.42 1.42-1.59-1.59V16h-1.98V4.83L9.42 6.42 8 5l4-4 4 4zm4 5v11c0 1.1-.9 2-2 2H6c-1.11 0-2-.9-2-2V10c0-1.11.89-2 2-2h3v2H6v11h12V10h-3V8h3c1.1 0 2 .89 2 2z"
     id="path4"
     style="fill:#808080;fill-opacity:1" />
</svg>
