<?xml version="1.0" encoding="UTF-8" standalone="no"?>
<svg
   height="24px"
   viewBox="0 0 24 24"
   width="24px"
   fill="#000000"
   version="1.1"
   id="svg6"
   sodipodi:docname="ios_share_black_24dp_edit.svg"
   inkscape:version="1.2.1 (9c6d41e410, 2022-07-14, custom)"
   xmlns:inkscape="http://www.inkscape.org/namespaces/inkscape"
   xmlns:sodipodi="http://sodipodi.sourceforge.net/DTD/sodipodi-0.dtd"
   xmlns="http://www.w3.org/2000/svg"
   xmlns:svg="http://www.w3.org/2000/svg">
  <defs
     id="defs10" />
  <sodipodi:namedview
     id="namedview8"
     pagecolor="#ffffff"
     bordercolor="#cccccc"
     borderopacity="1"
     inkscape:pageshadow="0"
     inkscape:pageopacity="1"
     inkscape:pagecheckerboard="0"
     showgrid="false"
     inkscape:zoom="22.945964"
     inkscape:cx="11.330969"
     inkscape:cy="13.880437"
     inkscape:window-width="1482"
     inkscape:window-height="931"
     inkscape:window-x="0"
     inkscape:window-y="0"
     inkscape:window-maximized="1"
     inkscape:current-layer="svg6"
     inkscape:showpageshadow="0"
     inkscape:deskcolor="#d1d1d1" />
  <path
     d="M0 0h24v24H0V0z"
     fill="none"
     id="path2" />
  <path
     style="fill:#808080;fill-opacity:1"
     d="m 20,10 v 11 c 0,1.1 -0.9,2 -2,2 H 6 C 4.89,23 4,22.1 4,21 V 10 C 4,8.89 4.89,8 6,8 h 3 v 2 H 6 V 21 H 18 V 10 H 15 V 8 h 3 c 1.1,0 2,0.89 2,2 z"
     id="path401" />
  <path
     style="fill:#808080;fill-opacity:1"
     d="m 16,12 -1.42,-1.42 -1.59,1.59 V 1 H 11.01 V 12.17 L 9.42,10.58 8,12 l 4,4 z"
     id="path4" />
</svg>
